<svg xmlns="http://www.w3.org/2000/svg" width="7.3in" height="6.8in" viewBox="0 0 528.4 490.8"><g fill="none" stroke="#4a4fa1" stroke-linecap="round" stroke-linejoin="round"><path stroke-width="5" d="M271 192.7c-21.4 4.9-4.5 20.4-4.5 20.4-16.4 81.6-46 7.6-47.7 10.5 3.7-6.2 6.6-14.5-3.4-16.4-5.3-1-13 1.1-15.6 6.2-3.6 7.2 8.9 12.9 8.9 12.9 3.1 8.3 1.8 21.3-3.1 28.2a22.5 22.5 0 0 1-9.8 8.3c-10.6 4-29.8-15.4-29.8-15.4.3-4.6-2-12.6-8.4-12.1s-13.3 7.7-13.5 13.8c-.2 7.7 13.5 7.9 13.5 7.9 30.7 16.1 31.1 81.8 31.1 81.8 52.6-11.9 108.6-13 167.7 0 0 0 .4-65.7 31.1-81.8 0 0 13.6-.2 13.4-7.9-.2-6.1-7.1-13.4-13.4-13.8s-8.7 7.5-8.5 12.1c0 0-19.2 19.4-29.7 15.4a21.4 21.4 0 0 1-9.8-8.3c-4.9-6.9-6.3-19.9-3.2-28.2 0 0 12.6-5.7 8.9-12.9-2.5-5.1-10.2-7.2-15.5-6.2-10.1 1.9-7.2 10.2-3.5 16.4-1.7-2.9-31.3 71.1-47.7-10.5 0 0 16.9-15.5-4.5-20.4z"/><path stroke-width="8" d="M421.3 177.9l45-25.6m-70.1 200.8l43.6 25.3M118.7 164.1l-26.3-21.5m.4 123.2H51.4m87 80L106 365.7m320.9-81.1l48.4 4.7"/></g></svg>