<svg xmlns="http://www.w3.org/2000/svg" width="350" height="350" viewBox="0 0 350 350"><path fill="#9e8b6f" d="M176.9 120.9c-15.8 3.5-3.3 15-3.3 15-12.2 60.5-34.1 5.7-35.4 7.9 2.8-4.7 4.9-10.8-2.5-12.2-4-.8-9.7.8-11.6 4.6-2.7 5.3 6.7 9.5 6.7 9.5 2.2 6.2 1.2 15.8-2.4 21a16.4 16.4 0 0 1-7.2 6.1c-7.9 3-22.1-11.4-22.1-11.4.2-3.4-1.5-9.3-6.3-9s-9.8 5.7-9.9 10.2 9.9 5.9 9.9 5.9c22.8 11.9 23.1 60.6 23.1 60.6 39-8.8 80.5-9.6 124.3 0 0 0 .3-48.7 23-60.6 0 0 10.1-.2 10-5.9s-5.3-9.9-10-10.2-6.4 5.6-6.3 9c0 0-14.2 14.4-22 11.4a16.4 16.4 0 0 1-7.2-6.1c-3.7-5.2-4.7-14.8-2.4-21 0 0 9.3-4.2 6.6-9.5-1.9-3.8-7.6-5.4-11.5-4.6-7.5 1.4-5.3 7.5-2.6 12.2-1.2-2.2-23.2 52.6-35.3-7.9 0 0 12.5-11.5-3.4-15z" opacity=".5"/></svg>