<svg xmlns="http://www.w3.org/2000/svg" width="350" height="350" viewBox="0 0 350 350"><g fill="none" stroke="#4a4fa1" stroke-linecap="round" stroke-linejoin="round"><path stroke-width="5" d="M180 130.8c-14 3.2-2.9 13.3-2.9 13.3-10.7 53.2-30.1 4.9-31.2 6.9 2.5-4.1 4.3-9.5-2.2-10.7-3.5-.7-8.5.7-10.2 4s5.9 8.4 5.9 8.4c2 5.4 1.1 13.9-2.1 18.4a14 14 0 0 1-6.4 5.4c-6.9 2.6-19.4-10-19.4-10 .2-3-1.3-8.2-5.5-7.9s-8.6 5-8.8 9 8.8 5.1 8.8 5.1c20 10.5 20.3 53.4 20.3 53.4 34.3-7.8 70.8-8.5 109.3 0 0 0 .3-42.9 20.3-53.4 0 0 8.9-.1 8.8-5.1s-4.7-8.7-8.8-9-5.7 4.9-5.5 7.9c0 0-12.5 12.6-19.4 10a14.6 14.6 0 0 1-6.4-5.4c-3.2-4.5-4.1-13-2.1-18.4 0 0 8.2-3.7 5.9-8.4s-6.7-4.7-10.2-4c-6.5 1.2-4.6 6.6-2.2 10.7-1.1-2-20.4 46.3-31.1-6.9 0 0 11-10.1-3-13.3z"/><path stroke-width="8" d="M278 121.1l29.3-16.6m-45.7 130.9l28.5 16.5M80.6 112.2l-17-14.1m.2 80.4h-27m56.7 52.1l-21.1 13m209.2-52.9l31.6 3.1"/></g></svg>