<svg xmlns="http://www.w3.org/2000/svg" width="7.3in" height="6.8in" viewBox="0 0 528.4 490.8"><path fill="#9e8b6f" d="M265.5 180.4c-23.7 5.4-4.9 22.6-4.9 22.6-18.3 90.6-51.2 8.5-53 11.8 4.1-7 7.3-16.2-3.9-18.3-5.9-1.1-14.4 1.2-17.3 6.9-4 8 10 14.3 10 14.3 3.4 9.2 1.9 23.6-3.6 31.4-2.7 3.9-6.3 7.4-10.8 9.1-11.8 4.5-33-17.1-33-17.1.2-5.1-2.3-13.9-9.4-13.4s-14.8 8.5-15 15.4c-.2 8.5 14.9 8.7 14.9 8.7 34.1 17.9 34.6 90.9 34.6 90.9 58.4-13.3 120.6-14.4 186.2 0 0 0 .5-73 34.6-90.9 0 0 15.1-.2 14.9-8.7-.2-6.9-7.9-14.9-14.9-15.4s-9.7 8.3-9.4 13.4c0 0-21.3 21.6-33.1 17.1-4.5-1.7-8.1-5.2-10.8-9.1-5.5-7.8-7-22.2-3.6-31.4 0 0 14-6.3 10-14.3-2.9-5.7-11.4-8-17.3-6.9-11.2 2.1-8 11.3-3.8 18.3-1.9-3.3-34.8 78.8-53.1-11.8 0 0 18.8-17.2-4.9-22.6z" opacity=".5"/></svg>