<svg xmlns="http://www.w3.org/2000/svg" width="350" height="350" viewBox="0 0 350 350"><path d="M109.3 193.5a56.4 56.4 0 0 0 13.5-13.2c7.4-10.7 8.8-24.4 14.1-36.4 3.1-7.1 7.5-13.6 10.9-20.6a80.9 80.9 0 0 0 8.1-40.2c3.2 1.2 4.6 4.9 5.8 8.2s3.5 6.8 6.9 6.8a35.4 35.4 0 0 0 6.8-17.6 35.3 35.3 0 0 1 11.1 29.7 9.1 9.1 0 0 0 .1 3.7c.9 2 3.3 2.7 5.5 3.2l36.2 7.3a16.5 16.5 0 0 0 4.9.6 18.4 18.4 0 0 1 3.3-.3c4.3.2 6.2 7.1 2.6 9.5-1.6 1.1-3.7 1.2-5.5 1.8s-3.9 2.1-3.7 4a4.5 4.5 0 0 0 1.6 2.9c8.8 9.3 23.9 10.1 33.2 19.1 2 1.9 3.8 4.6 3 7.3s-1.7 2.7-2.3 4.1-.4 5.1-.1 7.6a26.9 26.9 0 0 1-3.4 15.7c-3.4-.5-6 3-7.6 6L246 218l-3 5.5c-.9 1.4-2 3.1-3.7 3.3s-3.1-1.2-4.7-1.7c-5.4-2-10.4 4.5-16.1 5s-8.9-3.3-11.5-7.3a36.9 36.9 0 0 1-5.9-24c.2-2.7.6-6.1-1.5-7.9s-5.7-.7-7.4 1.6-2 5.2-2.3 8c-1.7 16.1-3.3 32.7 1 48.3.9 3.4 2.1 6.9 1.4 10.3s-4.1 7.1-7.8 8.6-7.8 1.8-11.8 1.8c-19-.1-38.1-5.6-53.5-16.5s-27.1-27.6-31-46.2c0 0 14.7-8.6 21.1-13.3z" opacity=".5"/></svg>