<svg xmlns="http://www.w3.org/2000/svg" width="7.3in" height="6.8in" viewBox="0 0 528.4 490.8"><path d="M365.4 267.8c-7.2-5.3-14.1-11.3-19.2-18.7-10.6-15.4-12.7-35.1-20.1-52.2-4.5-10.2-10.8-19.4-15.7-29.4a116.5 116.5 0 0 1-11.6-57.5c-4.6 1.7-6.5 7.1-8.2 11.7s-5 9.7-9.9 9.7a51.1 51.1 0 0 1-9.7-25.1 50.7 50.7 0 0 0-15.9 42.5c.2 1.8.5 3.6-.2 5.3s-4.7 3.9-7.8 4.5l-51.8 10.5a23.5 23.5 0 0 1-7 .8 37.3 37.3 0 0 0-4.7-.4c-6.1.3-8.9 10.1-3.8 13.6 2.4 1.6 5.3 1.8 8 2.6s5.5 2.9 5.3 5.7a6.8 6.8 0 0 1-2.3 4.1c-12.6 13.4-34.2 14.5-47.5 27.3-2.9 2.7-5.4 6.6-4.3 10.4.7 2.2 2.4 3.9 3.3 5.9s.6 7.3.2 10.9a37.2 37.2 0 0 0 4.8 22.4c4.9-.7 8.5 4.3 10.9 8.6 3.9 7.3 7.9 14.6 11.9 21.9 1.4 2.6 2.8 5.2 4.3 7.8s2.8 4.4 5.2 4.7 4.5-1.6 6.7-2.4c7.8-2.9 14.9 6.4 23.1 7.2s12.7-4.8 16.4-10.5a53.7 53.7 0 0 0 8.5-34.2c-.4-4-1-8.7 2.1-11.3s8.1-1.1 10.6 2.2 2.9 7.5 3.3 11.5c2.3 23 4.6 46.7-1.5 69-1.3 4.9-3 9.9-2 14.8s5.8 10.1 11.1 12.3 11.2 2.5 17 2.5c27.1-.1 54.4-7.9 76.5-23.6s38.7-39.5 44.2-66c0 0-21-12.3-30.2-19.1z" opacity=".5"/></svg>