<svg xmlns="http://www.w3.org/2000/svg" width="7.3in" height="6.8in" viewBox="0 0 525.2 487.9"><path d="M167.4 266.3c7.3-5.3 14.1-11.3 19.2-18.7 10.6-15.4 12.7-35 20.2-52.2 4.4-10.1 10.7-19.4 15.6-29.3a116.9 116.9 0 0 0 11.6-57.6c4.6 1.7 6.5 7.1 8.3 11.7s4.9 9.8 9.9 9.7a52.7 52.7 0 0 0 9.7-25.1 50.3 50.3 0 0 1 15.8 42.5c-.2 1.8-.5 3.7.2 5.3s4.7 3.9 7.8 4.5l51.8 10.5a23.9 23.9 0 0 0 7 .8 37.3 37.3 0 0 1 4.7-.4c6.2.4 8.9 10.1 3.8 13.6-2.3 1.6-5.3 1.8-8 2.6s-5.5 2.9-5.3 5.7a7.3 7.3 0 0 0 2.3 4.2c12.6 13.3 34.2 14.4 47.5 27.2 2.9 2.7 5.4 6.6 4.3 10.4-.7 2.2-2.4 3.9-3.3 5.9s-.6 7.3-.2 11a37 37 0 0 1-4.8 22.3c-4.9-.7-8.5 4.3-10.9 8.7l-11.8 21.8-4.4 7.8c-1.2 2.1-2.8 4.4-5.2 4.7s-4.4-1.6-6.7-2.4c-7.8-2.9-14.8 6.4-23.1 7.2-6.8.6-12.7-4.8-16.4-10.5a53.7 53.7 0 0 1-8.5-34.2c.4-4 1-8.7-2-11.3s-8.2-1-10.6 2.2-3 7.5-3.4 11.5c-2.3 23-4.6 46.7 1.5 69 1.3 4.9 3 9.9 2 14.8s-5.8 10.1-11.1 12.3-11.2 2.6-17 2.5c-27.1-.1-54.4-7.9-76.4-23.6s-38.7-39.5-44.3-66c0 0 21-12.3 30.2-19.1z" opacity=".5"/></svg>