<svg xmlns="http://www.w3.org/2000/svg" width="350" height="350" viewBox="0 0 350 350"><path d="M252 188.2a57.4 57.4 0 0 1-13.4-13.1c-7.4-10.8-8.9-24.5-14.1-36.5-3.1-7.1-7.5-13.5-10.9-20.5a81.1 81.1 0 0 1-8.1-40.3c-3.3 1.3-4.6 5-5.8 8.2s-3.5 6.8-7 6.8a35.8 35.8 0 0 1-6.7-17.5 35 35 0 0 0-11.1 29.7 7.8 7.8 0 0 1-.2 3.7c-.8 2-3.3 2.7-5.4 3.1l-36.3 7.4a16 16 0 0 1-4.9.5c-1 0-2.1-.3-3.2-.2-4.3.2-6.2 7-2.7 9.5 1.6 1.1 3.7 1.2 5.6 1.8s3.8 2 3.7 4a5 5 0 0 1-1.6 2.9c-8.8 9.3-24 10.1-33.2 19-2 1.9-3.8 4.7-3 7.3s1.6 2.7 2.3 4.2.4 5 .1 7.6a26.6 26.6 0 0 0 3.4 15.6c3.4-.5 5.9 3 7.6 6.1 2.7 5.1 5.5 10.2 8.3 15.3l3 5.4c.9 1.5 2 3.1 3.6 3.3s3.2-1.1 4.8-1.7c5.4-2 10.3 4.5 16.1 5.1s8.9-3.4 11.5-7.4a37.4 37.4 0 0 0 5.9-23.9c-.3-2.8-.7-6.1 1.5-7.9s5.7-.7 7.4 1.5 2 5.3 2.3 8.1c1.6 16.1 3.2 32.6-1 48.3-.9 3.3-2.2 6.9-1.4 10.3s4 7 7.8 8.6 7.8 1.8 11.8 1.8c19-.1 38-5.6 53.5-16.6s27.1-27.6 31-46.1c0 0-14.8-8.6-21.2-13.4z" opacity=".5"/></svg>