<svg xmlns="http://www.w3.org/2000/svg" width="3.9in" height="4.9in" viewBox="0 0 279.5 356.1"><path d="M50.4 178.5c7.3-5.3 14.1-11.4 19.2-18.8 10.6-15.4 12.7-35 20.2-52.1 4.4-10.2 10.7-19.4 15.6-29.4A116.8 116.8 0 0 0 117 20.7c4.6 1.7 6.5 7.1 8.3 11.7s4.9 9.7 9.9 9.7a53.1 53.1 0 0 0 9.7-25.1 50.2 50.2 0 0 1 15.8 42.5c-.2 1.7-.5 3.6.2 5.3s4.7 3.8 7.8 4.5l51.8 10.5a23.9 23.9 0 0 0 7 .8 37.3 37.3 0 0 1 4.7-.4c6.2.3 8.9 10.1 3.8 13.6-2.3 1.6-5.3 1.7-8 2.5s-5.5 3-5.3 5.8a6.8 6.8 0 0 0 2.3 4.1c12.6 13.4 34.2 14.5 47.5 27.2 2.9 2.8 5.4 6.7 4.3 10.5-.7 2.2-2.4 3.8-3.3 5.9s-.6 7.3-.2 10.9a37.3 37.3 0 0 1-4.8 22.4c-4.9-.7-8.5 4.3-10.9 8.6l-11.8 21.9-4.4 7.8c-1.2 2.1-2.8 4.4-5.2 4.7s-4.4-1.6-6.7-2.4c-7.8-2.9-14.8 6.4-23.1 7.2s-12.7-4.8-16.4-10.5a53.7 53.7 0 0 1-8.5-34.2c.4-4 1-8.8-2-11.4s-8.2-1-10.6 2.2-3 7.5-3.4 11.5c-2.3 23.1-4.6 46.7 1.5 69.1 1.3 4.8 3 9.8 2 14.8s-5.8 10-11.1 12.3-11.2 2.5-17 2.5c-27.1-.1-54.4-8-76.4-23.7s-38.7-39.4-44.3-65.9c0 0 21-12.3 30.2-19.1z"/><path fill="#e1ceb3" d="M51.7 180.7c9.1-6.8 17.5-14.6 23.1-24.7s8.3-20.6 11.6-31.3a139.9 139.9 0 0 1 5.3-15.4 153.4 153.4 0 0 1 8.4-16.1c2.9-5.2 5.9-10.4 8.5-15.9a120.8 120.8 0 0 0 6.3-16.8 119 119 0 0 0 4.6-39.8l-3.2 2.4c2.9 1.1 4.4 4.6 5.5 7.3s2.7 7.1 5.2 10.1a11.7 11.7 0 0 0 4.1 3.2c2 .9 4.8 1.6 6.2-.3a49.4 49.4 0 0 0 6.4-11.7 53.8 53.8 0 0 0 3.7-14.7l-4.3 1.7a48.2 48.2 0 0 1 13.4 21.7 42.8 42.8 0 0 1 2 12.8 47.2 47.2 0 0 1-.3 6.5c-.3 2.4-.4 4.8.9 7 2.2 3.8 7 4.6 11 5.4l16.7 3.4 33 6.7a30.7 30.7 0 0 0 8 .9 26 26 0 0 1 3.9-.5h.9l.7.3a6 6 0 0 1 2.8 5.9 4 4 0 0 1-1.4 2.8c-1.4 1-4 1.4-5.9 1.8-4.2 1-9.1 4-8.5 9s5.1 7.8 8.4 10.2a56.3 56.3 0 0 0 10.4 6c7.4 3.5 15.3 6 22.5 10a41 41 0 0 1 9.8 7.1 10.8 10.8 0 0 1 3.1 5.5c.3 2.1-1 3.7-2.1 5.4a13.4 13.4 0 0 0-2.2 7 47.6 47.6 0 0 0 .7 7.5 36 36 0 0 1-1.7 14.2 30.7 30.7 0 0 1-2.9 6.4l2.2-1.2c-7.7-.9-11.9 7.7-14.9 13.3l-12.8 23.5c-1.1 2.1-3 7.1-6.2 6-1.6-.6-3.1-1.7-4.8-2.3a11.3 11.3 0 0 0-4.5-.4c-6.4.6-11 5.6-17.1 7.3s-12.4-3.4-15.8-8.5a50.4 50.4 0 0 1-8.1-21.4 46.7 46.7 0 0 1-.3-11.2c.3-3.3.8-6.9-.3-10.1a8.6 8.6 0 0 0-7.7-5.7 11.5 11.5 0 0 0-8.8 4.1c-2.5 3.1-3.4 7-3.9 10.8s-.8 8.2-1.2 12.3c-.8 8.6-1.5 17.3-1.5 25.9a138.6 138.6 0 0 0 2.1 25.7c.7 4.3 1.9 8.4 3 12.6s1.8 7.7.3 11.4c-2.7 6.7-10.3 9.8-16.9 10.5a106.1 106.1 0 0 1-23.9-.5 132.6 132.6 0 0 1-44.4-13.3 114.9 114.9 0 0 1-34.6-26.9 105.5 105.5 0 0 1-20.9-36.5 84.8 84.8 0 0 1-2.7-10.2l-1.2 2.8c7.7-4.5 15.4-9.1 22.8-13.9l7.5-5.1a2.7 2.7 0 0 0 .9-3.5 2.6 2.6 0 0 0-3.4-.9c-8.8 6.5-18.3 12-27.6 17.5l-2.7 1.6a2.4 2.4 0 0 0-1.1 2.8 105.8 105.8 0 0 0 17.4 39.4 119.8 119.8 0 0 0 31.4 30.5 132.3 132.3 0 0 0 43.9 18.2 145.2 145.2 0 0 0 23.7 3.2c8.2.4 17 .7 24.6-2.6s12.3-8.7 13-16.3c.3-4.3-1-8.6-2.1-12.7a92.6 92.6 0 0 1-2.7-12.7c-2.6-17.1-1.2-34.7.5-51.8.6-5.4.2-16.1 7.4-17.3 2.8-.5 4.2 1.7 4.4 4.3s-.5 7.1-.5 10.6a57.2 57.2 0 0 0 5 23.4c3 6.6 7.5 13.6 14.1 17a15.7 15.7 0 0 0 10.4 1.7c3.2-.6 6.2-2.3 9-3.8s5.1-3.2 8-3.6 5.6 1.9 8.6 2.7 7.2-1.7 9.2-4.9 4.3-7.6 6.3-11.5l6.5-11.8a84.9 84.9 0 0 1 6-10.6c1.5-2.2 3.6-4.4 6.6-4a2.4 2.4 0 0 0 2.1-1.3 41 41 0 0 0 5-14.1 48.4 48.4 0 0 0 .4-7.6c-.2-2.5-.7-5-.8-7.4a10 10 0 0 1 1.9-6.5c1.3-2 2.4-4 2.4-6.5.2-4.9-3.4-9.1-7-12.1-6.5-5.5-14.4-8.8-22.2-12s-15.2-6.1-21.3-11.5c-1.3-1.1-3.4-2.7-3.8-4.4s1.7-2.8 2.9-3.3 4.6-.9 6.8-1.8a10.7 10.7 0 0 0 4.8-3.6c3.8-5.8 0-15.1-7.1-15.8-2.6-.3-5.2.6-7.9.3s-5.4-1-8-1.5L200 73.1l-16.9-3.5c-5.2-1-10.6-1.8-15.7-3.2-1.5-.4-3.2-.9-4-2.3s-.2-4.4 0-6.3a51.6 51.6 0 0 0-.8-13.6 52.6 52.6 0 0 0-11.3-24.1 43.7 43.7 0 0 0-4.7-4.9c-1.7-1.6-4-.4-4.2 1.8a50.4 50.4 0 0 1-9.4 23.8l2.2-1.2c-4.6-.1-6.8-5.9-8.1-9.5s-4.3-9.8-9.5-11.9c-1.4-.6-3.2 1-3.1 2.5a117.9 117.9 0 0 1-3.3 34.5A127.1 127.1 0 0 1 97.8 87c-2.9 5.2-5.9 10.3-8.5 15.7a111.3 111.3 0 0 0-6.2 15.7c-3.3 10.2-5.8 20.7-10.3 30.5a59.9 59.9 0 0 1-9.7 15.1 90 90 0 0 1-13.9 12.3 2.6 2.6 0 0 0-.9 3.5 2.6 2.6 0 0 0 3.4.9z"/><path d="M12.4 200c-.3 20.7 16.6 41.1 29.6 55.8 27 30.5 67 47.6 107.9 43.1 7.2-.8 14.5-2.3 20.8-6.1a19.2 19.2 0 0 0 7.5-7.7c3.9-8.5-1.7-18.1-2.6-27.3 5.2 5.9 10.4 11.9 13.5 19.1s4 15.8.3 22.7-10.1 10.4-16.8 13.3c-55.4 24.4-117.5-9.8-149-56.1a167.1 167.1 0 0 1-19.1-37.7c-1.4-3.7-2.5-7.7-1.8-11.6s3.7-7.7 7.7-7.9"/><path fill="#e1ceb3" d="M9.9 200c-.2 16.9 9.7 32.2 19.7 45s21.1 24.4 34.4 33.7a128.1 128.1 0 0 0 43.3 19.8 120.4 120.4 0 0 0 48.9 2c8.4-1.5 17.6-4.7 22.8-11.8s2.3-16.8.3-24.9a42.5 42.5 0 0 1-1.2-6l-4.2 1.7c6.7 7.8 14.2 16.3 15.3 27a20.3 20.3 0 0 1-3.1 13.8c-2.7 3.8-6.8 6.5-10.8 8.6-16.4 8.5-35.6 11.1-53.7 8.9S86.3 308.6 71 299a154.1 154.1 0 0 1-40.4-36.8 164.6 164.6 0 0 1-16.7-27.1 161.4 161.4 0 0 1-6.5-15.4c-1.7-4.5-3.9-10.2-1.1-14.7a5.5 5.5 0 0 1 4.1-2.9 2.6 2.6 0 0 0 2.5-2.5 2.4 2.4 0 0 0-2.5-2.5c-5.3.4-9.3 4.8-10.2 9.9s1.6 12.3 3.8 17.9a162.9 162.9 0 0 0 16.6 31.8 159 159 0 0 0 41.2 42.2c15.8 11.1 34 19.5 53.2 22.9a101.3 101.3 0 0 0 57.8-6.2c9.7-4.2 19.4-10.7 21.2-21.9s-4.1-22.5-11.2-31.4l-5.4-6.3c-1.4-1.5-4.5-.4-4.3 1.8a102.8 102.8 0 0 0 2.7 12.5c.9 3.7 1.8 7.7.9 11.4-1.9 7.8-10.8 11.4-17.8 13.1a94.4 94.4 0 0 1-23.7 2.3 113.2 113.2 0 0 1-22.5-2.5 123.1 123.1 0 0 1-42-17.4 121.4 121.4 0 0 1-17.9-14 189.2 189.2 0 0 1-15.6-16.7 142.4 142.4 0 0 1-14-19.6c-3.8-6.6-7-13.8-8-21.4a50.7 50.7 0 0 1-.3-5.5c.1-3.2-4.9-3.2-5 0z"/><path d="M178.4 320.9a19.5 19.5 0 0 1 .8-2.2c1.8-4.4 5.6-8.3 10.6-8.8 9.1-.9 18.7 4.1 24.3 11.2s6.6 16.9 1.4 24.8a16.2 16.2 0 0 1-10.2 7.4c-3.6.8-7.3-.1-10.7-1.5-11.9-4.9-20-18.3-16.2-30.9z"/><path fill="#e1ceb3" d="M180.8 321.6c1.1-3.6 3.2-7 6.7-8.6s7.7-.7 11.1.3c7.3 2.3 14.5 8.1 16.9 15.6s-.2 16.6-7.3 20.7-16.2-.8-21.3-6.1-8.4-14.1-6.1-21.9c.9-3.1-3.9-4.5-4.8-1.4-2.6 8.9.1 18.2 5.8 25.2a31.5 31.5 0 0 0 10.4 8.1c4.9 2.3 10.7 3.6 15.9 1.6 9.7-3.7 14.7-14.7 13-24.6s-10-17.6-19-21.2c-4.7-1.9-10.9-3-15.8-1.1s-8.7 6.7-10.3 12c-1 3.1 3.8 4.4 4.8 1.4zm-99.1-307c-10.6 9.7 4.1 13 4.1 13 17.3 51.7-23.7 19.3-23.7 21.6 0-4.8-1-10.4-7.3-8.2-3.4 1.1-7.1 4.8-6.9 8.6s9.3 4.4 9.3 4.4c4.5 3.7 8 11.5 7.5 17.1a15.2 15.2 0 0 1-2.9 7.9c-4.7 5.7-21.9.9-21.9.9-1.4-2.7-5.3-6.5-8.8-4.1S26 84.5 28 88.1s10.2.1 10.2.1c22.7-.9 44.4 36.3 44.4 36.3 26-24 57.5-42.8 95.3-54.8 0 0-21.2-37.5-9-56.6 0 0 7.7-4.6 5-8.9s-8.4-5.3-12.1-3.5-2.5 7.1-.9 9.7c0 0-4.5 17.3-11.9 18.4a14.5 14.5 0 0 1-8.2-1.5c-5.1-2.3-10.1-9.3-11.1-15 0 0 5.3-7.3.9-10.2s-8.2-.8-10.8 1.5c-5.1 4.4-.8 8.1 3.4 10.5-2-1.1 5.4 50.6-30.6 9.6 0 0 4.5-14.3-9.2-10.1z"/></svg>