<svg xmlns="http://www.w3.org/2000/svg" width="15.4in" height="5.2in" viewBox="0 0 1109.5 377.9"><path d="M99.6 190.7c7.2-5.4 14.1-11.4 19.2-18.8 10.6-15.4 12.7-35 20.1-52.2 4.5-10.1 10.8-19.4 15.7-29.3a116.9 116.9 0 0 0 11.6-57.6c4.6 1.7 6.5 7.1 8.2 11.7s5 9.8 9.9 9.8a51.4 51.4 0 0 0 9.7-25.2 50.7 50.7 0 0 1 15.9 42.5c-.2 1.8-.5 3.7.2 5.3s4.7 3.9 7.8 4.5L269.7 92a27.3 27.3 0 0 0 7 .7 37.3 37.3 0 0 1 4.7-.4c6.1.4 8.9 10.1 3.8 13.6-2.4 1.6-5.3 1.8-8 2.6s-5.5 2.9-5.3 5.7a7.3 7.3 0 0 0 2.3 4.2c12.6 13.3 34.2 14.5 47.5 27.2 2.9 2.7 5.4 6.7 4.3 10.5-.7 2.1-2.4 3.8-3.3 5.8s-.6 7.3-.2 11a37 37 0 0 1-4.8 22.3c-4.9-.7-8.5 4.3-10.9 8.7l-11.9 21.8c-1.4 2.6-2.8 5.2-4.3 7.8s-2.8 4.4-5.2 4.7-4.5-1.6-6.7-2.4c-7.8-2.8-14.9 6.5-23.1 7.2s-12.7-4.8-16.4-10.5a53.7 53.7 0 0 1-8.5-34.2c.4-4 1-8.7-2.1-11.3s-8.1-1-10.6 2.2-2.9 7.5-3.3 11.5c-2.3 23-4.6 46.7 1.5 69 1.3 4.9 3 9.9 2 14.8s-5.8 10.1-11.1 12.3-11.2 2.6-17 2.5c-27.1-.1-54.4-7.9-76.5-23.6s-38.7-39.5-44.2-66c0 0 21-12.3 30.2-19z"/><path fill="#e1ceb3" d="M100.9 192.8c9.1-6.8 17.5-14.6 23.1-24.6s8.3-20.7 11.5-31.3c1.6-5.2 3.3-10.5 5.4-15.5s5.4-10.8 8.3-16 6-10.5 8.6-16a124.5 124.5 0 0 0 6.3-16.7 119.6 119.6 0 0 0 4.6-39.9l-3.2 2.4c2.9 1.2 4.4 4.6 5.5 7.3s2.7 7.1 5.2 10.1a13.3 13.3 0 0 0 4.1 3.3c2 .8 4.7 1.6 6.2-.4a46.9 46.9 0 0 0 6.4-11.6 50.9 50.9 0 0 0 3.6-14.8l-4.2 1.8a47.9 47.9 0 0 1 13.4 21.6 43.3 43.3 0 0 1 2 12.8 46.4 46.4 0 0 1-.3 6.5c-.3 2.4-.4 4.9.8 7 2.3 3.9 7.1 4.6 11.1 5.5l16.7 3.3 33 6.8a30.6 30.6 0 0 0 8 .8c1.3-.1 2.5-.4 3.9-.4h.9l.7.2a6 6 0 0 1 2.8 5.9 3.6 3.6 0 0 1-1.5 2.8c-1.3 1.1-3.9 1.4-5.8 1.9-4.2 1-9.1 3.9-8.6 9s5.2 7.7 8.5 10.2a55.9 55.9 0 0 0 10.4 5.9c7.4 3.5 15.3 6.1 22.5 10.1a38.4 38.4 0 0 1 9.8 7.1 10.6 10.6 0 0 1 3.1 5.4c.3 2.2-1.1 3.8-2.1 5.4a13.8 13.8 0 0 0-2.2 7.1 61.5 61.5 0 0 0 .6 7.4 34.5 34.5 0 0 1-1.6 14.3 29.9 29.9 0 0 1-2.9 6.3l2.2-1.2c-7.8-.9-11.9 7.8-14.9 13.4L290 229.5c-1.2 2.1-3 7.2-6.2 6-1.6-.6-3.1-1.7-4.8-2.2a11.4 11.4 0 0 0-4.5-.5c-6.4.7-11.1 5.6-17.1 7.3s-12.4-3.4-15.8-8.5a50.9 50.9 0 0 1-8.2-21.3 47.4 47.4 0 0 1-.2-11.3c.2-3.3.8-6.8-.3-10a8.5 8.5 0 0 0-7.7-5.8 11.2 11.2 0 0 0-8.8 4.1c-2.5 3.1-3.4 6.9-3.9 10.8s-.9 8.2-1.2 12.3c-.8 8.6-1.5 17.2-1.5 25.8a131.5 131.5 0 0 0 2.1 25.8c.7 4.2 1.9 8.4 3 12.5s1.7 7.7.3 11.5c-2.7 6.7-10.3 9.7-16.9 10.5s-16.1.3-24-.6a132.6 132.6 0 0 1-44.3-13.2 115.7 115.7 0 0 1-34.7-27 106.5 106.5 0 0 1-20.8-36.4 96 96 0 0 1-2.7-10.2l-1.2 2.8c7.7-4.5 15.3-9.1 22.8-14l7.5-5.1a2.5 2.5 0 1 0-2.6-4.3c-8.7 6.4-18.2 11.9-27.5 17.5l-2.7 1.6a2.6 2.6 0 0 0-1.2 2.8 108.3 108.3 0 0 0 17.5 39.4 116.5 116.5 0 0 0 31.4 30.4 130.4 130.4 0 0 0 43.9 18.3 145.2 145.2 0 0 0 23.7 3.2c8.2.4 16.9.6 24.6-2.6s12.3-8.8 13-16.3c.3-4.3-1-8.6-2.1-12.8a109 109 0 0 1-2.8-12.6c-2.6-17.2-1.1-34.7.6-51.9.6-5.4.2-16.1 7.4-17.3 2.8-.4 4.2 1.8 4.4 4.3s-.5 7.1-.5 10.6a55.3 55.3 0 0 0 5 23.4c3 6.7 7.5 13.6 14.1 17.1a15.6 15.6 0 0 0 10.4 1.6 29.2 29.2 0 0 0 8.9-3.8c2.6-1.4 5.2-3.1 8.1-3.6s5.6 2 8.6 2.7 7.2-1.6 9.2-4.9 4.2-7.6 6.3-11.4l6.5-11.9a108.3 108.3 0 0 1 5.9-10.5c1.6-2.3 3.7-4.4 6.7-4.1a2.4 2.4 0 0 0 2.1-1.2 40 40 0 0 0 4.9-14.2 32.1 32.1 0 0 0 .4-7.6c-.1-2.5-.6-4.9-.7-7.4a10.7 10.7 0 0 1 1.8-6.5c1.4-2 2.5-4 2.5-6.4.2-5-3.4-9.2-7-12.1-6.5-5.6-14.4-8.8-22.2-12.1s-15.2-6.1-21.3-11.4c-1.3-1.2-3.4-2.8-3.8-4.5s1.7-2.7 2.9-3.2 4.6-1 6.8-1.8a10.3 10.3 0 0 0 4.8-3.7c3.8-5.7 0-15.1-7.1-15.8-2.6-.2-5.2.6-7.9.4a70.8 70.8 0 0 1-8-1.6l-16.7-3.4-16.9-3.4c-5.3-1.1-10.6-1.9-15.8-3.3-1.4-.3-3.1-.9-3.9-2.2s-.2-4.5 0-6.4a56.5 56.5 0 0 0-.8-13.6 53.3 53.3 0 0 0-11.4-24.1 41.6 41.6 0 0 0-4.6-4.8c-1.7-1.6-4-.4-4.3 1.7a49.2 49.2 0 0 1-9.3 23.9l2.1-1.2c-4.6-.1-6.7-6-8.1-9.5s-4.2-9.8-9.4-11.9c-1.4-.6-3.2.9-3.1 2.4a118.6 118.6 0 0 1-3.3 34.6c-2.9 11.3-7.7 21.7-13.4 31.8-2.9 5.2-5.9 10.3-8.5 15.7a110.1 110.1 0 0 0-6.2 15.6c-3.3 10.2-5.8 20.8-10.3 30.5a59.9 59.9 0 0 1-9.7 15.1 91.4 91.4 0 0 1-14 12.4 2.7 2.7 0 0 0-.9 3.4 2.6 2.6 0 0 0 3.5.9z"/><path d="M61.6 212.2c-.3 20.6 16.6 41.1 29.6 55.7 27 30.6 67 47.7 107.9 43.1 7.2-.8 14.5-2.3 20.8-6a19.4 19.4 0 0 0 7.5-7.8c3.9-8.4-1.7-18-2.6-27.3 5.2 5.9 10.4 12 13.5 19.1s4 15.8.3 22.7-10.1 10.5-16.8 13.4c-55.4 24.4-117.5-9.8-149-56.1a167.1 167.1 0 0 1-19.1-37.7c-1.4-3.8-2.5-7.8-1.8-11.7s3.7-7.6 7.7-7.9"/><path fill="#e1ceb3" d="M59.1 212.2c-.2 16.9 9.7 32.1 19.7 44.9s21.1 24.4 34.4 33.8a132.1 132.1 0 0 0 43.3 19.8 118.6 118.6 0 0 0 48.9 1.9c8.3-1.4 17.6-4.6 22.8-11.8s2.3-16.7.3-24.9a37.5 37.5 0 0 1-1.2-6l-4.2 1.8c6.7 7.7 14.2 16.3 15.3 26.9a20.5 20.5 0 0 1-3.1 13.9c-2.7 3.8-6.8 6.5-10.8 8.6-16.4 8.4-35.6 11-53.7 8.8s-35.3-9.1-50.6-18.7a152.8 152.8 0 0 1-40.4-36.9 156.6 156.6 0 0 1-16.7-27.1c-2.5-5-4.6-10.1-6.6-15.3s-3.8-10.3-1-14.8a5.9 5.9 0 0 1 4.1-2.9 2.6 2.6 0 0 0 2.5-2.5 2.5 2.5 0 0 0-2.5-2.5c-5.3.5-9.3 4.8-10.2 10s1.5 12.2 3.8 17.9a168.8 168.8 0 0 0 16.6 31.8 159.8 159.8 0 0 0 41.1 42.1c15.9 11.2 34.1 19.5 53.3 23a102.2 102.2 0 0 0 57.8-6.3c9.7-4.1 19.4-10.6 21.2-21.9s-4.1-22.4-11.3-31.3c-1.7-2.2-3.5-4.3-5.3-6.3s-4.5-.4-4.3 1.7a108.7 108.7 0 0 0 2.7 12.6c.9 3.6 1.8 7.6.9 11.4-1.9 7.7-10.8 11.3-17.8 13.1a89.9 89.9 0 0 1-23.7 2.2 122.1 122.1 0 0 1-22.6-2.4 125.4 125.4 0 0 1-41.9-17.4 127.8 127.8 0 0 1-18-14 190.4 190.4 0 0 1-15.5-16.8 141.5 141.5 0 0 1-14-19.5c-3.8-6.6-7-13.9-8-21.5a48.9 48.9 0 0 1-.3-5.4c0-3.2-5-3.2-5 0z"/><path d="M227.6 333c.2-.7.4-1.4.7-2.2 1.9-4.4 5.7-8.3 10.6-8.8 9.2-.9 18.8 4.2 24.4 11.3s6.6 16.9 1.4 24.8a16.9 16.9 0 0 1-10.2 7.4 18.9 18.9 0 0 1-10.7-1.5c-11.9-5-20-18.3-16.2-31z"/><path fill="#e1ceb3" d="M230 333.7c1.1-3.5 3.2-7 6.7-8.5s7.7-.8 11.1.3c7.3 2.3 14.4 8.1 16.9 15.5s-.2 16.6-7.3 20.7-16.2-.7-21.3-6-8.4-14.1-6.1-22c.9-3.1-4-4.4-4.8-1.3-2.6 8.8 0 18.1 5.8 25.1a30.5 30.5 0 0 0 10.4 8.1c4.9 2.3 10.7 3.7 15.9 1.7 9.7-3.7 14.7-14.7 13-24.6s-10-17.6-19-21.3c-4.7-1.9-10.9-3-15.8-1.1s-8.7 6.8-10.3 12.1c-1 3.1 3.8 4.4 4.8 1.3zm-99.1-307c-10.6 9.7 4.1 13 4.1 13 17.3 51.8-23.7 19.4-23.7 21.6 0-4.7-1-10.4-7.4-8.2-3.3 1.2-7 4.9-6.8 8.6.3 5.3 9.3 4.4 9.3 4.4 4.5 3.7 8 11.6 7.4 17.1a14 14 0 0 1-2.8 7.9c-4.7 5.8-22 1-22 1-1.3-2.7-5.2-6.5-8.7-4.1s-5.1 8.7-3.2 12.2 10.3.1 10.3.1c22.7-.9 44.4 36.4 44.4 36.4 26-24 57.5-42.9 95.3-54.8 0 0-21.2-37.5-9-56.7 0 0 7.7-4.6 5-8.9s-8.4-5.3-12.1-3.4-2.5 7.1-.9 9.6c0 0-4.5 17.3-11.9 18.5a14.5 14.5 0 0 1-8.2-1.5c-5.1-2.4-10.1-9.3-11.1-15.1 0 0 5.3-7.3.9-10.2s-8.2-.7-10.9 1.6c-5 4.3-.7 8.1 3.4 10.4-1.9-1.1 5.5 50.7-30.5 9.6 0 0 4.5-14.3-9.2-10.1z"/></svg>