<svg xmlns="http://www.w3.org/2000/svg" width="4.7in" height="4.4in" viewBox="0 0 338.2 314.2"><path fill="#e1ceb3" d="M96.4 86.5c9.1-5.7 20.3-2.4 22-8.5.6-2.2.4-4.6 1.5-6.6s3-3.3 5-4.5l20.9-13c9.4-5.8 21.2-11.8 31-6.7 7.1 3.7 10.3 12 16.3 17.3 10.4 9 28.6 8.8 34.8 20.9 1 1.9 1.6 4 2.9 5.7s5 3.6 7.9 4.7c16.1 6.2 33.7 13.9 40.4 29.4 4.8 11.1 2.9 24.3 8.9 34.9 3.2 5.8 8.7 10.4 11.3 16.6s.7 15.1-6 16.3c-3.2.7-6.5-.7-9.8-.4-9.4.9-12.9 14.6-22.3 15.7-4.3.6-8.3-1.8-12-3.9-9.9-5.8-26-8.1-39.6-8.5-18.9 1.3-20.6 6.9-32.7 11.8-15 6-32-19.9-33.9-7.4s-5 13.7-15.5 18.3a13 13 0 0 1-17.7-8.7c-.8-3.3-.4-7.2-2.9-9.6s-7.5-7.6-11-7.2c-8.8 1.1-14.2 1.4-21.6-3.4s-9.6-17.3-1.8-21.4l-19.7-4.4c-3.5-.8-7.3-1.8-9.5-4.5s-1.7-9.8-1.2-14.9c.9-8.2-1.3-16.4-2.9-24.6s-2.5-16.8.8-24.4S52.3 82 60.4 84.6c5.6 1.7 9.9 6.9 15.8 7.2 8.5.4 20.2-5.3 20.2-5.3z"/><path d="M257.8 139.5a5.8 5.8 0 0 1-3.2 3.5 19.3 19.3 0 0 1-5.9 1.8c-2.2.4-4.4.5-6.6.8a66.8 66.8 0 0 0-8.9 1.8 50.5 50.5 0 0 0-5.5 1.8 22.5 22.5 0 0 0 2.1-2.4 23.3 23.3 0 0 0 5.1-7c1.2-2.7 2-5.7 3.6-8.2 2.9-4.5 7.8-7.1 12.3-9.7 2.8-1.5.3-5.9-2.6-4.3a53.1 53.1 0 0 0-10.1 6.9 23.4 23.4 0 0 0-3.4-12c-1.6-2.7-6-.2-4.3 2.6 5.1 8.3 2.5 18.8-2.7 26.4l-1.6 2.1a84.7 84.7 0 0 1-9.6 7.4l-1.2.9a12.8 12.8 0 0 0-.4-9.4c-.5-1.2-2.3-1.5-3.4-.9a2.6 2.6 0 0 0-.9 3.4c1.3 3-.1 6.5-1.9 8.9s-5.6 5.1-9.1 6.7-8 3.3-11.6 5.5l-1.6 1.1c.9-1.7 1.7-3.3 2.5-5 3.8-7.8 6.5-16.2 5.6-25a2.5 2.5 0 0 0-2.5-2.5 2.5 2.5 0 0 0-2.5 2.5c1 9.5-2.5 18.3-6.9 26.6a53.4 53.4 0 0 0 .2-14.4 2.5 2.5 0 0 0-2.5-2.5 2.5 2.5 0 0 0-2.5 2.5 51.8 51.8 0 0 1-1.3 19.6 58.3 58.3 0 0 1-3.4 9.4c-.9 1.9-1.9 3.8-2.7 5.7-.4-1.6-.7-3.2-1.1-4.8-.3-8.7-.7-17.5.3-26.1s3.6-17.2 10.5-22.7c8.6-6.8 20.9-6.2 31.3-5.8 3.2.2 3.2-4.8 0-5-8.5-.3-17.5-.5-25.6 2.2a22 22 0 0 1 2.5-1.7 31.8 31.8 0 0 1 6.7-3.2c3.1-.9 6.2-1.2 9.3-1.9 6-1.4 11.9-5.9 10.9-12.7a2.5 2.5 0 0 0-3.1-1.8 2.6 2.6 0 0 0-1.7 3.1c.3 1.9-1.4 3.8-2.9 4.8s-5 1.9-7.6 2.4a36.6 36.6 0 0 0-14.2 5A44.6 44.6 0 0 0 171 132l.6-3.4.3-1c3.8-11.8 9-23.1 14.3-34.3a2.7 2.7 0 0 0-.9-3.4 2.5 2.5 0 0 0-3.5.9c-2.9 6.3-5.9 12.7-8.6 19.2a60.3 60.3 0 0 0-1.2-10.4 82.1 82.1 0 0 1-1.8-8.3c-.3-2.2-.3-4.9 1.1-6.7a2.7 2.7 0 0 0 0-3.6c-.9-.8-2.7-1-3.5 0-3.5 4.5-3 9.8-1.8 15 .6 2.6 1.3 5.2 1.7 7.9a55.6 55.6 0 0 1 .5 8.2 95 95 0 0 1-1.3 15 14.2 14.2 0 0 0-.7 2.2c0-.5-.1-.9-.1-1.3a16.3 16.3 0 0 0-3.1-8.5l-.6-.7c-.2-11.4-1.6-23.1-7.3-33.2-1.6-2.8-6-.3-4.4 2.5 4.4 7.6 5.9 16.2 6.5 24.8l-.5-.6c-4.4-4.9-8.9-9.8-13.3-14.8-2.2-2.4-5.7 1.2-3.6 3.6l8.2 9a20.5 20.5 0 0 0-5.6-.5l-.6-.2a40.4 40.4 0 0 1-8.4-4.5 35.3 35.3 0 0 1-6.9-6.6 2.5 2.5 0 0 0-3.6 0 2.6 2.6 0 0 0 0 3.5 40.5 40.5 0 0 0 17.6 12.4h.2a1.8 1.8 0 0 0 1.4.4c6.6-.6 12.1 3.7 15.4 9.2v8.4c-2.7-3.1-6.2-5-10.1-6.5s-8.6-2.5-11.1-5.9a2.6 2.6 0 0 0-3.5-.9 2.6 2.6 0 0 0-.9 3.4c2.7 3.6 6.5 5.4 10.6 7s7.5 2.4 10.3 5.1a17.8 17.8 0 0 1 4.9 10.1l.3 4.3a1.7 1.7 0 0 0 .1.7 98.7 98.7 0 0 1-1.4 12.7c-.5 3.6-.8 7.1-1 10.7a40.1 40.1 0 0 0-8.7-9.2 21.3 21.3 0 0 1 .3-14.3 2.5 2.5 0 0 0-1.8-3.1 2.5 2.5 0 0 0-3 1.7 21.7 21.7 0 0 0-1.4 11.5l-5.4-3.2a23 23 0 0 1-1.7-3.9c-3.3-9.8-2.7-20.9-8.8-29.6a2.6 2.6 0 0 0-3.5-.9 2.6 2.6 0 0 0-.9 3.4c5.3 7.5 5.3 17.1 7.6 25.7a10.3 10.3 0 0 0 .4 1.4 112.9 112.9 0 0 1-11.5-7.4c-8.8-6.7-16.5-16.5-16.3-27.9 0-3.3-5-3.3-5 0-.1 8.6 3.6 16.6 9 23.1-9.4-5.1-19.8-10-24.8-19.8-1.5-2.9-5.8-.3-4.4 2.5 5.3 10.2 15.9 15.7 25.6 21a156.9 156.9 0 0 1 14.7 9.1c-4.4-.6-8.9-.8-13.4-1.2s-10.5-1.5-14.5-4.9a2.5 2.5 0 0 0-3.5 0c-.9.9-1.1 2.7 0 3.5 8 6.8 18.8 6.1 28.7 7.3a35.4 35.4 0 0 1 13.7 4.3 9.5 9.5 0 0 1 1.7 1l1 .8a154.6 154.6 0 0 1 19.1 20.5 136.2 136.2 0 0 1 7.4 14.8 8.8 8.8 0 0 0 .2 1.7l-1.6-1a65.7 65.7 0 0 0-9.4-6.5c-2.1-1.3-4.3-2.5-6.5-3.7-4.8-5.4-7.6-12.1-13.6-16.4a2.5 2.5 0 0 0-3.4.9 2.6 2.6 0 0 0 .9 3.4 27.7 27.7 0 0 1 6.3 6.9l-3.8-2c-6.3-3.3-13.1-6.8-17.9-11.6-2.3-2.3-5.8 1.3-3.5 3.6 4.4 4.4 10 7.5 15.4 10.5l16.6 8.8a37.1 37.1 0 0 0 4.8 3.9l3.1 1.8c-2.4 0-4.8 0-7-1.2s-5.3 2.8-2.5 4.3c5 2.7 10.4 1.5 15.8 1.9a14 14 0 0 1 3.5 1l1.1 1.1a13.9 13.9 0 0 1 2.1 2.7l.6 1.1c.5 4.3 1.1 8.6 1.6 12.9v1.2c-.2 4.1-.5 8.1-1 12.2a209.9 209.9 0 0 1-4.1 26.2v.2h-.1a2.4 2.4 0 0 0 .4 2.9 2.3 2.3 0 0 0 1.7 1.8 2.5 2.5 0 0 0 3.1-1.7c.1-.5.1-.9.2-1.4a3.8 3.8 0 0 0 1.5 0v.7a1.8 1.8 0 0 0 .4 1.4 2.5 2.5 0 0 0 2.5 2.1 2.6 2.6 0 0 0 2.5-2.5v-.3h.1a2.6 2.6 0 0 0 2.5 2 2.5 2.5 0 0 0 2.5-2.5 1.3 1.3 0 0 1-.1-.6 1.7 1.7 0 0 0 1 0 2.7 2.7 0 0 0 1.8-3.1l-.3-1.4a2.1 2.1 0 0 0 1-1.9l-.5-37c-.1-5.7-.3-11.4-.1-17.1a44.7 44.7 0 0 1 1.3-10.3 47.7 47.7 0 0 1 2.2-5.2 34.6 34.6 0 0 1 2.2-3.1 90.4 90.4 0 0 1 9.5-7.9l8.5-6.1a27.8 27.8 0 0 1 11.1-.9c5.4.7 10.3 3 15.2 5.2s10.5 4.4 16.3 5a2.6 2.6 0 0 0 2.5-2.5 2.5 2.5 0 0 0-2.5-2.5 39.9 39.9 0 0 1-11.2-3.2 16 16 0 0 0 10.9-6.3 2.5 2.5 0 0 0-.9-3.4 2.6 2.6 0 0 0-3.4.9c-2.1 2.9-6 4-9.4 4.2s-8.8-1-13.1-2.1a48.8 48.8 0 0 0-5.5-1.2c8.3-5.3 17-10 26.4-12.6a47.9 47.9 0 0 1 9.3-1.9c2.6-.3 5.2-.6 7.8-1.1 4.9-1 9.9-3.4 11.4-8.6.8-3.1-4-4.4-4.9-1.3zm-115 27.4l-.2-.3h.2z"/></svg>